<svg id="Group_37176" data-name="Group 37176" xmlns="http://www.w3.org/2000/svg" width="64" height="64" viewBox="0 0 64 64">
  <path id="Path_1095" data-name="Path 1095" d="M19.088,24l7.09-5.61,14.33-.14s2.1,12.06,3.9,14.18,4,2.2,3.09,3.59-2.53,2.2-2.29,4.56a10.38,10.38,0,0,1,0,1.52l-4.8,1.46a.89.89,0,0,0-.34,1.44l2.85,2.8a6.92,6.92,0,0,1-3.91,1.84c-5.95.89-16-2.55-16-2.55L17.9,35.76Z" transform="translate(-1.608)" fill="#ffd4cf"/>
  <path id="Path_1096" data-name="Path 1096" d="M23.1,27.4l.35-3.4,7.09-5.61,14.33-.14s.88,5.06,2,9.21A36.37,36.37,0,0,1,23.1,27.4Z" transform="translate(-5.97)" fill="#f27777"/>
  <path id="Path_1097" data-name="Path 1097" d="M54.774,13.29s2.4,8.71-4.98,11.15c0,0-.73-2.2-1.63-2.45,0,0-1.55,5.67-5.79,6,0,0-1.79-2.66-2.69-3.72,0,0-2,3.09-1.64,5.7s.81,5.7.81,5.7-2.36-3.83-4.48-2,1.21,6.92,3.57,7.5c0,0-3.1,8.57-5.38,9.06,0,0-.1-2.2-1.08-2.69s-8.19-7.2-9.24-13.64,1.65-17.1,9.47-20.51,16,1.73,20.36.84a12.42,12.42,0,0,0,2.7-.94Z" transform="translate(-13.174)" fill="#58595b"/>
  <path id="Path_1098" data-name="Path 1098" d="M29.182,33.85c-1-6.43,1.65-17.1,9.47-20.51,5.87-2.56,12-.3,16.47.61a31.51,31.51,0,0,1-9.62,6.68C39.862,23,34.962,34.2,33.772,42.81c-2.04-2.53-4.07-5.81-4.59-8.96Z" transform="translate(-20.102)" fill="#6a6b6b"/>
  <path id="Path_1099" data-name="Path 1099" d="M33.616,32.07a10.4,10.4,0,0,0,.85,1.67,3.14,3.14,0,0,1,.85,2.64c-.26,1.29-2.13,1.51-2.9.8a2.08,2.08,0,0,1-.38-2.45A11.51,11.51,0,0,0,33.616,32.07Z" transform="translate(-3.146)" fill="#91cef4"/>
  <path id="Path_1100" data-name="Path 1100" d="M35.343,36.82a2,2,0,0,1-2.72.35,2.06,2.06,0,0,1-.59-1.84A3.81,3.81,0,0,0,35.343,36.82Z" transform="translate(-3.343)" fill="#7fb5da"/>
  <path id="Path_1101" data-name="Path 1101" d="M9.56,42.58,16.87,41M8.86,48.83l6.84,3.01m-5.56-5.79,7.47.42" transform="translate(37.53)" fill="none" stroke="#f27777" stroke-linecap="round" stroke-linejoin="round" stroke-width="1"/>
  <path id="Path_1102" data-name="Path 1102" d="M21.78,29.95a4.65,4.65,0,0,0,4-1.51" transform="translate(16.44)" fill="none" stroke="#e5bbb7" stroke-linecap="round" stroke-linejoin="round" stroke-width="1"/>
  <path id="Path_1103" data-name="Path 1103" d="M64,0H0V64H64Z" fill="none"/>
</svg>
