<svg xmlns="http://www.w3.org/2000/svg" xmlns:xlink="http://www.w3.org/1999/xlink" width="43.679" height="51.397" viewBox="0 0 43.679 51.397">
  <defs>
    <linearGradient id="linear-gradient" x1="0.503" y1="0.832" x2="0.467" y2="0.33" gradientUnits="objectBoundingBox">
      <stop offset="0" stop-color="#e44450" stop-opacity="0"/>
      <stop offset="1" stop-color="#e44450"/>
    </linearGradient>
  </defs>
  <g id="Group_37174" data-name="Group 37174" transform="translate(-14 -0.276)">
    <path id="Path_1076" data-name="Path 1076" d="M31.5,88.528c-3.439,4.2-6.113,7.259-6.5,14.137H49.835c-.726-2.56-3.783-5.884-6.877-9.934L33.406,87Z" transform="translate(-6.797 -50.992)" fill="#bde5ec"/>
    <path id="Path_1077" data-name="Path 1077" d="M42.885,12.166c1.414,3.821-.917,6.648-1.375,7.45S31,27.449,30.85,31.69s.764,4.547.764,4.547a11.618,11.618,0,0,0-4.547,2.483C20.8,44.757,15.987,40.363,14,36.81c3.439-6.113-2.942-19.295,5.425-27.662C26.456,2.08,39.561,3,42.885,12.166Z" transform="translate(0 0)" fill="#892e1d"/>
    <path id="Path_1078" data-name="Path 1078" d="M56.164,63.547s-.344,8.253.573,9.781a7.772,7.772,0,0,1-9.093-3.057S49.86,68.361,47.3,55.6C55.247,59.268,56.164,63.547,56.164,63.547Z" transform="translate(-20.577 -31.589)" fill="#ffc298"/>
    <path id="Path_1079" data-name="Path 1079" d="M59.606,74c0-1.91.076-3.477.076-3.477S52.843,65.707,53,67.159C53.263,70.062,55.556,72.7,59.606,74Z" transform="translate(-24.095 -38.563)" fill="#e1927a"/>
    <path id="Path_1080" data-name="Path 1080" d="M54.913,26.412c.917,2.445.191,3.324.8,6.419.42,2.254,1.032,4.7,1.949,5.464a3.421,3.421,0,0,1-2.751,1.528s-.076,7.183-5.464,6.113c-7.6-1.528-9.437-9.132-9.437-9.132s-2.445,2.14-3.362-.306,1.223-6.381,3.668-3.057c.306-3.974,3.821-5.655,6.075-6.992,6.113-3.668,7.642-2.445,8.52-.038Z" transform="translate(-13.862 -12.144)" fill="#ffc298"/>
    <path id="Path_1081" data-name="Path 1081" d="M54.913,26.412c.917,2.445.191,3.324.8,6.419.42,2.254,1.032,4.7,1.949,5.464a3.421,3.421,0,0,1-2.751,1.528s-.076,7.183-5.464,6.113c-7.6-1.528-9.437-9.132-9.437-9.132s-2.445,2.14-3.362-.306,1.223-6.381,3.668-3.057c.306-3.974,3.821-5.655,6.075-6.992,6.113-3.668,7.642-2.445,8.52-.038Z" transform="translate(-13.862 -12.144)" fill="#ffc298"/>
    <path id="Path_1082" data-name="Path 1082" d="M61.654,31.667h.153c-.267-2.254.153-3.209-.611-5.311-.917-2.445-2.445-3.668-8.52,0-2.063,1.223-5.349,3.744-6.075,6.992,1.949-.229,10.66-1.49,15.054-1.681Z" transform="translate(-20.144 -12.088)" fill="url(#linear-gradient)"/>
    <path id="Path_1083" data-name="Path 1083" d="M41.264,24.525a11.915,11.915,0,0,1,1.223,2.751s8.826-1.223,9.437-6.992c1.223.917,1.223,3.057,1.223,3.057s3.362-.306,3.974-3.057c2.1-9.552-13.411-5.769-15.856-3.057s-.917,6.075,0,7.3Z" transform="translate(-16.031 -5.978)" fill="#892e1d"/>
    <path id="Path_1084" data-name="Path 1084" d="M40.337,48.79a5.91,5.91,0,0,0-.115.65c-.038.191-.038.344-.076.5v.5c0,.115.038.191.038.306s.038.229.038.382v.038a.247.247,0,0,1-.229.229h-.076a.793.793,0,0,1-.382-.229,1.318,1.318,0,0,1-.306-.344A2.071,2.071,0,0,1,39,49.859a1.593,1.593,0,0,1,.344-.917,1.23,1.23,0,0,1,.764-.458.168.168,0,0,1,.229.153Z" transform="translate(-15.448 -27.186)" fill="#e1927a"/>
    <path id="Path_1085" data-name="Path 1085" d="M59.04,47.084a1.247,1.247,0,0,1-1.719,0,1.275,1.275,0,0,1-.229-1.452l1.07-1.987,1.07,1.987A1.208,1.208,0,0,1,59.04,47.084Zm3.324-2.445a1.247,1.247,0,0,1-1.719,0,1.275,1.275,0,0,1-.229-1.452l1.07-1.987,1.07,1.987A1.208,1.208,0,0,1,62.364,44.639Z" transform="translate(-26.548 -22.691)" fill="#2652e4"/>
    <circle id="Ellipse_123" data-name="Ellipse 123" cx="3.821" cy="3.821" r="3.821" transform="translate(46.858 14.612)" fill="#bde5ec"/>
    <path id="Path_1086" data-name="Path 1086" d="M110,11.8V22.575" transform="translate(-59.321 -4.524)" fill="none" stroke="#bde5ec" stroke-linecap="round" stroke-linejoin="round" stroke-width="14"/>
    <path id="Path_1087" data-name="Path 1087" d="M110,11.8V22.575" transform="translate(-59.321 -4.524)" fill="none" stroke="#fff" stroke-linecap="round" stroke-width="6"/>
    <path id="Path_1088" data-name="Path 1088" d="M110,19.2v7.947" transform="translate(-59.321 -9.097)" fill="none" stroke="#e44450" stroke-width="6"/>
    <circle id="Ellipse_124" data-name="Ellipse 124" cx="2.292" cy="2.292" r="2.292" transform="translate(48.387 16.14)" fill="#e44450"/>
  </g>
</svg>
