<svg xmlns="http://www.w3.org/2000/svg" width="37.041" height="38.976" viewBox="0 0 37.041 38.976">
  <g id="Group_37177" data-name="Group 37177" transform="translate(-5.073 -1.999)">
    <path id="Path_1104" data-name="Path 1104" d="M12.2,40.286l24.361-.377c.141-.138.283-.273.418-.415a18.52,18.52,0,1,0-27.6-.927C9.765,39.035,11.764,39.865,12.2,40.286Z" transform="translate(0 -4.232)" fill="#06c4ff"/>
    <path id="Path_1105" data-name="Path 1105" d="M81.69,10.15" transform="translate(-52.534 -5.589)" fill="none" stroke="#fc0000" stroke-width="0.25"/>
    <path id="Path_1106" data-name="Path 1106" d="M45.462,68.487a.055.055,0,0,1,0-.057A.057.057,0,0,0,45.462,68.487Z" transform="translate(-27.687 -45.55)" fill="#f3c8b5"/>
    <path id="Path_1107" data-name="Path 1107" d="M46.375,71.528a18.728,18.728,0,0,1-3.093,2.6l-.358.229a18.546,18.546,0,0,1-20.086-.141l-.383-.261A18.545,18.545,0,0,1,18.78,70.6c0-2.166.028-3.983.028-4.46,0-1.675.629-2.785,2.159-4.108s3-1.814,6.054-3c.1-.038.207-.082.314-.123a4.067,4.067,0,0,0,1-.629,2.732,2.732,0,0,0,.868-2.587v-.022a5.692,5.692,0,0,0-.245-.773c.132.148.27.292.412.427a5.708,5.708,0,0,0,3.219,1.459,5.689,5.689,0,0,0,3.206-1.468c.145-.135.283-.28.415-.427a5.693,5.693,0,0,0-.245.773,2.98,2.98,0,0,0-.05.519,2.675,2.675,0,0,0,.915,2.093,4.067,4.067,0,0,0,1,.629c.094.041.2.085.314.123,3.065,1.185,4.523,1.672,6.06,3s2.159,2.433,2.159,4.108c-.013.55,0,2.835.019,5.394Z" transform="translate(-9.398 -36.266)" fill="#fdd9c1"/>
    <path id="Path_1108" data-name="Path 1108" d="M45.433,68.43a.057.057,0,0,0,0,.057A.1.1,0,0,1,45.433,68.43Z" transform="translate(-27.669 -45.55)" fill="#fdd9c1"/>
    <path id="Path_1109" data-name="Path 1109" d="M52.924,78.232a8.051,8.051,0,0,0,.915,1.028s-.255-.1-.255.016.465.629.56.915a8.383,8.383,0,0,0-.8-.723c-.176-.094.16.434.258.512,0,0,.047.258-.563-.446a7.072,7.072,0,0,0-1.748-1.3,2.848,2.848,0,0,1,1.169.449s-.207-.673-.481-.8c0,0,.61.368.786.512s.16-.16.16-.16Zm-6.482.808a9.791,9.791,0,0,0,.179,1.477,8.32,8.32,0,0,0,.575-.943l-.031,1.669.192-.192s-.145.7-.031.8.176-.723.371-.943a8.383,8.383,0,0,1-.082,1.987c-.176.77-.289,1.861-.289,1.861a16.563,16.563,0,0,1-.16-1.779s-.314,1.075-.528,1.091,0-.063,0-.063a11,11,0,0,0,.207-2.1l-.239-.207v-.754l-.314.314V80.118s-.585-.773.151-1.078Zm-4.973,2.552c.1-.082.77-1.235.77-1.235l.031.383s.594-.993.594-.943-.063.387-.063.387l.145-.031-.1.415.434-.207-.739,1.22-.129-.434-.286.481-.035-.465ZM52.4,87.561a29.412,29.412,0,0,0-.512-3.1l.415.629s.1-1.411.195-1.286.512.8.512.8l.047-1.037a15.916,15.916,0,0,0,1.059,2.791,1.609,1.609,0,0,1,.226,1.3l-.754-1.443.063.61-.723-.943.289,2.037-.629-1.458Zm-6.274,1.282a2.2,2.2,0,0,1,.314-.629c.195-.226,1.012-1.22,1.012-1.22s.016.77-.368,1.059c0,0,.993-.594,1.025-.883a2.485,2.485,0,0,1-.962,1.493s-.578.56-.594.833l.629-.45-.415.594.528-.289-.657.852-.082-.258s-.594.657-.849.657a1.613,1.613,0,0,0,.481-1.091C46.122,88.967,46.122,88.844,46.122,88.844Zm-3.5-3.514a8.571,8.571,0,0,0,.7-1.059,5.617,5.617,0,0,0,0,.883l.226-.207s-.195.736-.371.849l.314-.145-.11.629h.141a9.925,9.925,0,0,0-.943,2.005c0,.383-.016-.079-.016-.079a6.69,6.69,0,0,1,.371-1.719l.126-.383-.248.349.145-.72-.314.031.145-.289Zm-3.1,1.235a5.315,5.315,0,0,0,.739-2.854l.27-.339a4.919,4.919,0,0,0-.176.8,2.986,2.986,0,0,0,.4-.258,6.086,6.086,0,0,1-.5,1.282s.512-.16.512-.528A2.142,2.142,0,0,1,39.53,86.565Z" transform="translate(-23.626 -52.029)" fill="#f99e92"/>
    <path id="Path_1110" data-name="Path 1110" d="M52.7,40.107a5.691,5.691,0,0,0-.245.773,2.98,2.98,0,0,0-.05.519,5.636,5.636,0,0,1-3.291,1.132,5.711,5.711,0,0,1-3.263-1.468l-.163-.157v-.022a5.693,5.693,0,0,0-.245-.773c.132.148.27.292.412.427A5.708,5.708,0,0,0,49.074,42a5.689,5.689,0,0,0,3.212-1.462C52.431,40.4,52.569,40.255,52.7,40.107Zm2.914-6.777c.075,0,1,.6.4,2.442S54.442,37,54.442,37ZM43.906,36.961a1.741,1.741,0,0,1-.726-.714,3.313,3.313,0,0,1-.119-2.669,3.253,3.253,0,0,0,.544,1.348,11.021,11.021,0,0,0,.3,2.034Z" transform="translate(-25.893 -21.483)" fill="#f3c8b5"/>
    <path id="Path_1111" data-name="Path 1111" d="M55.652,12.289c-.346-1.279.063-3.565-1.025-4.467a5.752,5.752,0,0,0-.707-.487H53.9a.139.139,0,0,0,0-.028c-.481-.286-1-.55-1.437-.846a5.3,5.3,0,0,0-2.515-1.132,7.526,7.526,0,0,0-5.089,1.9c-1.622,1.553-1.308,3.646-1.2,5.671a1.443,1.443,0,0,1-.314,1.047c.025.145.05.286.079.421a3.235,3.235,0,0,0,.544,1.352,11.209,11.209,0,0,0,.292,2.034A7.478,7.478,0,0,0,45.789,20.9c.132.148.27.292.412.427a5.73,5.73,0,0,0,3.263,1.465,5.7,5.7,0,0,0,4.023-1.779.858.858,0,0,0,.072-.079,8.583,8.583,0,0,0,2-5.155h.157a15.716,15.716,0,0,0,.742-2.483A1.487,1.487,0,0,1,55.652,12.289Z" transform="translate(-26.238 -2.277)" fill="#fddbc2"/>
    <path id="Path_1112" data-name="Path 1112" d="M56.029,6.862c-.277-1.405-.88-1.886-1.446-2.015a1.99,1.99,0,0,0-1.257.223A3.631,3.631,0,0,0,51.38,2.364a5.13,5.13,0,0,0-3.04-.258A6.873,6.873,0,0,0,42.5,7.462a30.59,30.59,0,0,0,.314,4.633,3.253,3.253,0,0,0,.544,1.348l.163.028.4.072a42.452,42.452,0,0,1,.449-5.287,2.986,2.986,0,0,1,.943-.471,39.2,39.2,0,0,1,7.365-1.616,7.61,7.61,0,0,1,1.455,2.983,7.33,7.33,0,0,1,.217,1.826l.047,2.568.541-.041H55.1S56.63,9.9,56.029,6.862Z" transform="translate(-25.66 0)" fill="#3a556a"/>
    <path id="Path_1113" data-name="Path 1113" d="M60.393,9.946a7.61,7.61,0,0,0-1.459-2.983A38.528,38.528,0,0,0,51.57,8.579c2.263-1.867,7.016-2.163,7.016-2.163a2.934,2.934,0,0,0-1-3.256,3.608,3.608,0,0,1,1.946,2.706,1.99,1.99,0,0,1,1.257-.223c-.547.129-1.336.383-1.418.971A3.865,3.865,0,0,1,60.393,9.946Z" transform="translate(-31.881 -0.796)" fill="#354e62"/>
    <path id="Path_1114" data-name="Path 1114" d="M30.853,104.309l-.383-.261c.05-1.4.119-5.268.119-5.268Zm20.444-.088-.358.229L51.2,99.3S51.251,102.621,51.3,104.221Z" transform="translate(-17.414 -66.36)" fill="#f5c8b1"/>
  </g>
</svg>
