<svg xmlns="http://www.w3.org/2000/svg" width="91.513" height="91.513" viewBox="0 0 91.513 91.513">
  <g id="Group_37191" data-name="Group 37191" transform="translate(0 -1026.362)">
    <circle id="Ellipse_129" data-name="Ellipse 129" cx="45.756" cy="45.756" r="45.756" transform="translate(0 1026.362)" fill="#239fdb"/>
    <path id="Path_1160" data-name="Path 1160" d="M46.79,63.169q1.062-.445,2.1-.943,2.039-1.039,3.967-2.277t3.72-2.657a45.754,45.754,0,0,0,3.439-3.02q1.642-1.595,3.118-3.347T65.9,47.281a45.756,45.756,0,0,0,2.393-3.9q1.1-2.008,1.992-4.118.8-1.932,1.429-3.932L48.891,12.51a1.759,1.759,0,0,0-2.471-2.474L21,29.647,10.181,18.827a1.76,1.76,0,1,0-2.735,2.207l11.7,14.491Z" transform="translate(17.618 1050.672)" fill="#1bace3" fill-rule="evenodd"/>
    <path id="Path_1161" data-name="Path 1161" d="M42.491,4.324a1.76,1.76,0,0,0-1.091.387L14.707,25.305,5.165,13.5A1.76,1.76,0,1,0,2.426,15.71L14.126,30.2,43.558,7.5a1.76,1.76,0,0,0-1.066-3.168Z" transform="translate(22.638 1055.996)" fill="#fff" stroke="#fff" stroke-width="1" fill-rule="evenodd"/>
  </g>
</svg>
