<svg xmlns="http://www.w3.org/2000/svg" width="16.61" height="15.878" viewBox="0 0 16.61 15.878">
  <g id="Group_37139" data-name="Group 37139" transform="translate(-15.9 -17.5)">
    <path id="Path_1017" data-name="Path 1017" d="M36.366,26.354A4.177,4.177,0,1,0,32.2,22.166,4.166,4.166,0,0,0,36.366,26.354Zm0-7.256a3.067,3.067,0,1,1-3.067,3.09A3.067,3.067,0,0,1,36.366,19.1Z" transform="translate(-12.184 0)" fill="#6c6c6c" stroke="#6c6c6c" stroke-width="1"/>
    <path id="Path_1018" data-name="Path 1018" d="M16.949,63.491H31.461a.557.557,0,0,0,.549-.549A5.255,5.255,0,0,0,26.769,57.7H21.641A5.255,5.255,0,0,0,16.4,62.941.557.557,0,0,0,16.949,63.491ZM21.641,58.8h5.127a4.128,4.128,0,0,1,4.1,3.593H17.544A4.128,4.128,0,0,1,21.641,58.8Z" transform="translate(0 -30.613)" fill="#6c6c6c" stroke="#6c6c6c" stroke-width="1"/>
  </g>
</svg>
