<svg xmlns="http://www.w3.org/2000/svg" width="21.998" height="22" viewBox="0 0 21.998 22">
  <g id="Page-1" transform="translate(0)">
    <g id="Dribbble-Light-Preview" transform="translate(0)">
      <g id="icons" transform="translate(0)">
        <path id="call-_192_" data-name="call-[#192]" d="M68.6,7180.06c-.679,2.064-3.339,3.093-5.24,2.922a16.707,16.707,0,0,1-7.565-3.128,24.916,24.916,0,0,1-7.824-9.336c-1.216-2.586-1.489-5.766.32-8.122A3.106,3.106,0,0,1,50.772,7161c1.508-.073,1.719.789,2.237,2.132.386,1,.9,2.029,1.188,3.071.538,1.944-1.343,2.024-1.581,3.612-.147,1,1.066,2.346,1.615,3.06a14.826,14.826,0,0,0,3.825,3.523c.836.526,2.182,1.476,3.139.952,1.472-.807,1.335-3.29,3.392-2.449a32.936,32.936,0,0,1,3.116,1.609c1.574.846,1.5,1.723.9,3.544h0" transform="translate(-47 -7161)" fill="#6c6c6c" fill-rule="evenodd"/>
      </g>
    </g>
  </g>
</svg>
