<svg id="Group_37214" data-name="Group 37214" xmlns="http://www.w3.org/2000/svg" width="22" height="22" viewBox="0 0 22 22">
  <path id="Path_1166" data-name="Path 1166" d="M0,0H22V22H0Z" fill="none"/>
  <path id="Path_1167" data-name="Path 1167" d="M14,10.285V5.546a1.8,1.8,0,0,0-.541-1.293L11.892,2.686a.913.913,0,0,0-1.292,0L9.041,4.244a1.839,1.839,0,0,0-.541,1.3V6.618H4.833A1.839,1.839,0,0,0,3,8.451v9.167a1.839,1.839,0,0,0,1.833,1.833H17.667A1.839,1.839,0,0,0,19.5,17.618v-5.5a1.839,1.839,0,0,0-1.833-1.833ZM6.667,17.618H4.833V15.785H6.667Zm0-3.667H4.833V12.118H6.667Zm0-3.667H4.833V8.451H6.667Zm5.5,7.333H10.333V15.785h1.833Zm0-3.667H10.333V12.118h1.833Zm0-3.667H10.333V8.451h1.833Zm0-3.667H10.333V4.785h1.833Zm5.5,11H15.833V15.785h1.833Zm0-3.667H15.833V12.118h1.833Z" transform="translate(-0.25 -0.201)" fill="#6c6c6c"/>
</svg>
