<svg xmlns="http://www.w3.org/2000/svg" width="28.142" height="21.946" viewBox="0 0 28.142 21.946">
  <g id="Group_278" data-name="Group 278" transform="translate(-11.005 -64.948)">
    <circle id="Ellipse_5" data-name="Ellipse 5" cx="2.128" cy="2.128" r="2.128" transform="translate(30.841 74.812)" fill="#535353"/>
    <circle id="Ellipse_6" data-name="Ellipse 6" cx="2.128" cy="2.128" r="2.128" transform="translate(14.909 68.878) rotate(-4.066)" fill="#535353"/>
    <path id="Path_519" data-name="Path 519" d="M37.269,72.827a6.062,6.062,0,0,0-8.6,0,6.312,6.312,0,0,0-.567,8.338l1.887,2.521a3.046,3.046,0,0,0-2.072.064,1.91,1.91,0,0,1-1.383.057,2.176,2.176,0,0,1-1.18-.859,3.306,3.306,0,0,0-1.727-1.225,3.045,3.045,0,0,0-2.078.062,1.912,1.912,0,0,1-1.383.057,2.176,2.176,0,0,1-1.18-.859,3.946,3.946,0,0,0-.784-.771l3.849-5.142a6.312,6.312,0,0,0-.57-8.334,6.062,6.062,0,0,0-8.6,0,6.312,6.312,0,0,0-.567,8.338l3.933,5.254a1.164,1.164,0,0,0,.39.334.571.571,0,0,0,.282.194,2.176,2.176,0,0,1,1.18.859,3.306,3.306,0,0,0,1.727,1.225,3.045,3.045,0,0,0,2.078-.062,1.911,1.911,0,0,1,1.383-.057,2.176,2.176,0,0,1,1.18.859A3.306,3.306,0,0,0,26.2,84.9a3.045,3.045,0,0,0,2.078-.062,1.912,1.912,0,0,1,1.383-.057,2.178,2.178,0,0,1,1.18.859,3.306,3.306,0,0,0,1.727,1.225.566.566,0,0,0,.294.011c.036,0,.073.006.109.006h0a1.156,1.156,0,0,0,.933-.467l3.936-5.258a6.313,6.313,0,0,0-.569-8.334Zm-20.087,1.3a3.265,3.265,0,1,1,2.32-.956,3.265,3.265,0,0,1-2.32.956ZM35.29,79.26a3.293,3.293,0,1,1,.956-2.32,3.257,3.257,0,0,1-.956,2.32Z" transform="translate(0)" fill="#535353"/>
  </g>
</svg>
