<svg xmlns="http://www.w3.org/2000/svg" width="38" height="40" viewBox="0 0 38 40">
  <g id="Group_37224" data-name="Group 37224" transform="translate(-338 -665)">
    <rect id="Rectangle_715" data-name="Rectangle 715" width="38" height="40" rx="10" transform="translate(338 665)" fill="#fff"/>
    <path id="Path_1021" data-name="Path 1021" d="M7.407,4.776c-.2-2.247-2.54-3.35-2.639-3.395a.5.5,0,0,0-.3-.04c-2.706.449-3.114,2.024-3.13,2.09a.506.506,0,0,0,.01.276C4.579,13.723,11.288,15.579,13.493,16.19c.17.047.31.085.416.12a.506.506,0,0,0,.369-.021,4.144,4.144,0,0,0,2.051-3.23.51.51,0,0,0-.049-.313A4.852,4.852,0,0,0,13.1,10.53a.5.5,0,0,0-.452.107,6.834,6.834,0,0,1-2.172,1.355,9.644,9.644,0,0,1-4.6-4.678,5.484,5.484,0,0,1,1.4-2.148A.51.51,0,0,0,7.407,4.776Z" transform="translate(348.169 676.166)" fill="#1bace3"/>
  </g>
</svg>
