<svg xmlns="http://www.w3.org/2000/svg" width="54" height="54" viewBox="0 0 54 54">
  <g id="Group_37219" data-name="Group 37219" transform="translate(-62 -202)">
    <circle id="Ellipse_133" data-name="Ellipse 133" cx="27" cy="27" r="27" transform="translate(62 202)" fill="#d5f0fa"/>
    <path id="Path_1021" data-name="Path 1021" d="M10.239,6.379C9.952,3.085,6.516,1.469,6.371,1.4a.73.73,0,0,0-.436-.058C1.968,2,1.371,4.311,1.347,4.407a.742.742,0,0,0,.015.4c4.731,14.68,14.565,17.4,17.8,18.3.249.069.454.124.61.175a.742.742,0,0,0,.541-.031c.1-.045,2.435-1.145,3.006-4.734a.747.747,0,0,0-.072-.459,7.111,7.111,0,0,0-4.661-3.246.732.732,0,0,0-.663.157,10.017,10.017,0,0,1-3.183,1.986c-4.271-2.088-6.656-6.1-6.746-6.856-.052-.427.927-1.928,2.052-3.148A.748.748,0,0,0,10.239,6.379Z" transform="translate(77.674 217.98)" fill="#1bace3"/>
  </g>
</svg>
