<svg xmlns="http://www.w3.org/2000/svg" width="23.261" height="27.102" viewBox="0 0 23.261 27.102">
  <path id="Path_1080" data-name="Path 1080" d="M20.777,8.537a.946.946,0,0,1-.946.946H13.723a.946.946,0,0,1,0-1.891h6.109a.946.946,0,0,1,.946.946ZM10.409,7.592H9.435a.946.946,0,0,0,0,1.891h.974a.946.946,0,1,0,0-1.891Zm9.422,3.783H13.723a.946.946,0,0,0,0,1.891h6.109a.946.946,0,0,0,0-1.891Zm-9.422,0H9.435a.946.946,0,1,0,0,1.891h.974a.946.946,0,1,0,0-1.891Zm9.422,3.783H13.723a.946.946,0,0,0,0,1.891h6.109a.946.946,0,0,0,0-1.891Zm-9.422,0H9.435a.946.946,0,0,0,0,1.891h.974a.946.946,0,1,0,0-1.891Zm16.7,9.379a5.4,5.4,0,1,1-5.4-5.405,5.4,5.4,0,0,1,5.4,5.405Zm-1.891,0a3.512,3.512,0,1,0-3.51,3.512A3.512,3.512,0,0,0,25.22,24.536ZM13.741,21.578H6.687a.946.946,0,0,1-.946-.946V5.672a.946.946,0,0,1,.946-.946H22.612a.946.946,0,0,1,.946.946v11.14a.946.946,0,1,0,1.891,0V5.672a2.841,2.841,0,0,0-2.837-2.837H6.687A2.841,2.841,0,0,0,3.85,5.672v14.96a2.841,2.841,0,0,0,2.837,2.837h7.055a.946.946,0,1,0,0-1.891Zm7.968,0a.946.946,0,0,0-.946.946V23.59h-.5a.946.946,0,1,0,0,1.891H21.71a.946.946,0,0,0,.946-.946V22.523A.946.946,0,0,0,21.71,21.578Z" transform="translate(-3.85 -2.835)" fill="#fff"/>
</svg>
