<svg xmlns="http://www.w3.org/2000/svg" width="22.394" height="31.376" viewBox="0 0 22.394 31.376">
  <path id="Path_520" data-name="Path 520" d="M46.059,32.111l-1.275-5.778a4.355,4.355,0,0,0-2.234-2.664l-3.168-1.614c-.005-.008-.007-.016-.012-.024l-1.191-1.6a.562.562,0,0,0-.821-.079l-.017.015-.024-.156a6.284,6.284,0,0,0,2.229-2.581,2.073,2.073,0,0,0,1.94-1.278,2.008,2.008,0,0,0-.033-1.935,1.743,1.743,0,0,0-1.052-.734c0-.132,0-.266-.011-.4-.206-3.588-1.161-5.665-5.429-5.665S29.738,9.7,29.532,13.29c-.008.132-.007.265-.011.4a1.743,1.743,0,0,0-1.052.734,2.011,2.011,0,0,0-.033,1.935,2.073,2.073,0,0,0,1.94,1.277A6.284,6.284,0,0,0,32.6,20.214l-.024.156-.017-.015a.569.569,0,0,0-.821.079l-1.191,1.6c-.005.007-.007.016-.012.023l-3.168,1.614a4.364,4.364,0,0,0-2.24,2.689l-1.268,5.754a4.264,4.264,0,0,0,1.3,4.067l2.953,2.678a.568.568,0,0,0,.374.144H41.435a.591.591,0,0,0,.374-.144l2.953-2.678a4.264,4.264,0,0,0,1.3-4.067ZM40.344,14.864a.547.547,0,0,1,.171.159.961.961,0,0,1-.048.885.937.937,0,0,1-.437.491A8.787,8.787,0,0,0,40.344,14.864Zm-10.89,1.044a.961.961,0,0,1-.048-.885.544.544,0,0,1,.171-.158,8.791,8.791,0,0,0,.315,1.534A.937.937,0,0,1,29.454,15.908ZM27.93,37.188l-2.023-1.835a3.148,3.148,0,0,1-.957-3l.211-.956a6.059,6.059,0,0,1,2.769-.023ZM39.407,26.949l.888,1.139H36.6l-.159-1.139Zm-1.753-5.357.578.775-1.323,1.817-.673-1.3ZM30.7,14.863l1.193,1.358a.557.557,0,0,0,.635.145c.154-.065.542-.24.978-.438a3.511,3.511,0,0,1,2.908,0c.215.1.431.195.645.3.316.15.688.315.968,0l1.193-1.358c-.361,2.8-2.132,4.938-4.26,4.938S31.061,17.664,30.7,14.863ZM35.564,29.2v1.866H34.357V29.2ZM34.44,28.088l.159-1.139h.723l.159,1.139Zm-2.173-6.5,1.419,1.293-.674,1.3-1.323-1.817Zm-1.753,5.357h2.961l-.159,1.139H29.626ZM40.879,37.888H29.043V29.2h4.2v2.423a.557.557,0,0,0,.557.557h2.32a.557.557,0,0,0,.557-.557V29.2h4.2Zm3.136-2.534-2.023,1.835V31.372a6.062,6.062,0,0,1,2.769.023l.211.956a3.148,3.148,0,0,1-.958,3Z" transform="translate(-23.764 -7.625)" fill="#535353"/>
</svg>
