<svg xmlns="http://www.w3.org/2000/svg" width="28" height="28" viewBox="0 0 28 28">
  <g id="Group_37210" data-name="Group 37210" transform="translate(0 -0.294)">
    <rect id="Rectangle_740" data-name="Rectangle 740" width="28" height="28" transform="translate(0 0.294)" fill="none"/>
    <path id="Path_1145" data-name="Path 1145" d="M35.47,24A11.47,11.47,0,1,0,46.94,35.47,11.47,11.47,0,0,0,35.47,24Zm2.647,15.881a.882.882,0,0,1,0,1.765H32.823a.883.883,0,0,1-.7-1.426l4.817-6.427a1.765,1.765,0,1,0-3.1-1.656.882.882,0,0,1-1.625-.687A3.53,3.53,0,1,1,38.4,34.8l-.025.035-3.783,5.049Z" transform="translate(-21.353 -21.294)" fill="#bebcbc"/>
  </g>
</svg>
