<svg xmlns="http://www.w3.org/2000/svg" xmlns:xlink="http://www.w3.org/1999/xlink" width="30" height="20" viewBox="0 0 30 20">
  <defs>
    <linearGradient id="linear-gradient" x1="0.5" x2="0.5" y2="1" gradientUnits="objectBoundingBox">
      <stop offset="0" stop-color="#1d4c80"/>
      <stop offset="1" stop-color="#173a63"/>
    </linearGradient>
  </defs>
  <g id="Layer_x0020_1" transform="translate(-34 -868)">
    <g id="_235782456" transform="translate(34 868)">
      <rect id="Rectangle_696" data-name="Rectangle 696" width="30" height="20" rx="4" fill="url(#linear-gradient)"/>
      <path id="Path_1106" data-name="Path 1106" d="M546.446,1260.736l.135-.532c.518-.156,1.575-.227,1.774.333a8.829,8.829,0,0,1-.277,2.079l-.5.007c-.114-.142-.021.121-.1-.227-.483.433-1.511.362-1.433-.511s.83-.752,1.646-.88c-.014-.553-.71-.4-1.249-.277Zm3.8-.085c-.461,0-.532-.1-.937.078.05.5.312.305.674.547.688.454-.05,1.859-1.689,1.256l.092-.511c.461.092.7.185,1.05-.014.085-.717-1.185-.248-.83-1.4.192-.624,1.036-.539,1.732-.475l-.1.518Zm-7.068-1.086,1.086.036.114,1.7.589-1.363c.2-.49.064-.383,1.313-.369l-.561,3.044-.61-.007.333-2.186-.9,2.2-.731-.021a15.871,15.871,0,0,0-.17-2.207l-.369,2.214-.639-.007Zm10.354,6.465.3-.355c-.6-.078-.7.092-.972-.39l1.37-.014a3.968,3.968,0,0,0,.3-.44c-1.561-.106-2,.291-2.25-.39h2.505l.277-.433-3.094-.014-.142-.362,3.335-.014c.192-.107.192-.227.241-.447l-3.158-.007c-.568.007-.6.135-.71-.383H555.5l.128-.44-1.164-.014-.057.3-.667-.028.419-2.477.632.085c0,.014.014.064.014.085s.007.036.007.043l.035.128a.722.722,0,0,1,.7-.355l-.213.575c-.121.156-.475-.021-.624.4l.7.028a4.475,4.475,0,0,1,.291-.944l.007-.213-4.35.007-.014.156c.234,0,.227-.043.362.071l-.064.419c-.44.106-.426-.156-.468.419.064.106-.014.05.121.085l.277.007a1.214,1.214,0,0,1,2.086-.681c.163.241.326,1.036-.078,1.1l-1.355.014c.064.717.887.568,1.419.39-.021.3,0,.539-.277.639a2.131,2.131,0,0,1-.922,0,1.011,1.011,0,0,1-.894-1.079l-.255-.007c-.234-.107-.05,0-.17-.291-.1.6-.369.979.369.894-.043.355.007.475-.383.518-1.135.135-.766-.625-.582-1.639.291-1.618.064-1.419.887-1.405l4.229.007-.085-.44-4.088-.014.078-.355,3.867-.021c-.1-.6-.121-.454-1.526-.454h-2.143c.149-.518.071-.376,1.462-.376h1.881l-.2-.447-2.725-.007.185-.369,2.278-.014c-.291-.6-.277-.426-1.888-.454.206-.511.568-.383,1.2-.383-.177-.284-.305-.263-.412-.5a7.471,7.471,0,0,1-.759-.561,6.9,6.9,0,1,0-2.626,12.475c2.03-.348,2.54-1.171,3.378-1.632Z" transform="translate(-538.371 -1251.241)" fill="#e41d2c" fill-rule="evenodd"/>
      <path id="Path_1107" data-name="Path 1107" d="M1871.8,1264.537c2.2-.447,1.838.639,1.661,1.519-.057.262-.057.781-.263.922a3.115,3.115,0,0,1-.369-.007c-.2-.078-.106.156-.135-.206-.6.341-1.54.419-1.427-.532.092-.759.859-.88,1.639-.844-.028-.561-.539-.468-1.249-.291l.149-.561Zm2.172-.064.589.007a.132.132,0,0,1,.014.05l.092.263a.722.722,0,0,1,.617-.312l-.085.5-.291.114c-.582.192-.546.923-.7,1.881h-.66Zm3.129-.539h.6l-.518,3.052c-.674.007-.511.043-.724-.213-.44.653-1.76.05-1.355-1.3.3-1.008,1.306-1.277,1.8-.681l.2-.866Zm-9.928-3.832c.107.241.241.22.412.5-.631,0-.994-.135-1.2.383,1.611.028,1.6-.142,1.888.454l-2.278.014-.185.369,2.725.007.2.447h-1.881c-1.384,0-1.313-.135-1.462.376h2.143c1.405,0,1.426-.149,1.526.454l-3.868.021-.078.355,4.088.014.085.44-4.229-.007-.057.4,4.35-.007-.007.213c.327-.312.27-.476.88-.653a2.39,2.39,0,0,1,1.32.071l-.106.653c-.852-.255-1.405-.192-1.6.688-.22.944.525,1.3,1.313.922-.071.688-.184.859-.993.752a1.266,1.266,0,0,1-.979-.674h-1.015l-.057.39,1.164.014-.128.44h-3.974c.106.518.142.39.71.383l3.158.007c-.057.213-.05.341-.241.447l-3.335.014.142.362,3.094.014-.277.433h-2.505c.248.674.688.284,2.25.39a3.976,3.976,0,0,1-.3.44l-1.37.014c.262.475.376.312.972.39l-.3.355a6.945,6.945,0,0,0,7.685,1.036,6.9,6.9,0,0,0-.043-12.383,7.112,7.112,0,0,0-6.152.043,9.5,9.5,0,0,0-1.476,1.022Z" transform="translate(-1852.006 -1255.596)" fill="#f8b02b" fill-rule="evenodd"/>
      <path id="Path_1108" data-name="Path 1108" d="M634,2031.172l.639.007.369-2.214a15.855,15.855,0,0,1,.17,2.207l.731.021.9-2.2-.333,2.186.61.007.561-3.044c-1.249-.014-1.114-.121-1.313.369l-.589,1.363-.114-1.7-1.086-.036Zm19.771-.561c-.532-.546-.078-1.455.419-1.334S654.587,2030.6,653.771,2030.611Zm.866-1.611c-.5-.6-1.5-.326-1.8.681-.4,1.341.915,1.951,1.355,1.3.213.256.05.213.724.213l.518-3.052h-.6l-.2.866Zm-4.875,1.618c-.1-.476.341-.66.759-.575A.528.528,0,0,1,649.761,2030.618Zm-.227-1.866-.149.561c.71-.17,1.228-.263,1.249.291-.781-.035-1.547.085-1.639.844-.121.951.83.873,1.426.532.028.362-.064.128.135.206a3.114,3.114,0,0,0,.369.007c.213-.135.213-.66.263-.923.185-.887.539-1.966-1.661-1.519Zm-10.588,1.27a.589.589,0,0,1-.185.546c-.106.078-.426.17-.554.05-.4-.362.348-.6.731-.6Zm-1.128-.724c.539-.128,1.235-.277,1.249.277-.816.128-1.568.014-1.646.88s.944.944,1.433.511c.078.348-.014.085.1.227l.5-.007a8.879,8.879,0,0,0,.277-2.079c-.2-.568-1.249-.5-1.774-.333l-.135.532Zm5.883.355c.092-.362.248-.511.667-.454.149.213.149.149.177.454Zm-.752.035-.028.383a1.02,1.02,0,0,0,.894,1.079,2.126,2.126,0,0,0,.922,0c.277-.092.255-.341.277-.639-.532.177-1.355.326-1.419-.39l1.355-.014c.4-.064.241-.852.078-1.1a1.214,1.214,0,0,0-2.086.681Zm4.13-.944a4.489,4.489,0,0,0-.291.944v.39l.121.433a1.266,1.266,0,0,0,.979.674c.809.106.922-.064.994-.752-.795.376-1.533.021-1.313-.923.206-.887.759-.944,1.6-.688l.106-.653a2.531,2.531,0,0,0-1.32-.071c-.61.17-.554.341-.88.653Zm-5.372-.05c-.7-.057-1.54-.149-1.732.475-.355,1.15.908.681.83,1.4-.362.2-.589.106-1.05.014l-.092.511c1.639.6,2.37-.795,1.689-1.256-.362-.241-.625-.036-.674-.547.4-.185.468-.078.937-.078l.1-.518Z" transform="translate(-629.742 -2019.803)" fill="#fefefe" fill-rule="evenodd"/>
      <path id="Path_1109" data-name="Path 1109" d="M1719.583,2042.554l.05-.17c.043-.575.028-.312.468-.419l.064-.419c-.135-.114-.128-.071-.362-.071l.014-.156.057-.4c-.823-.014-.6-.213-.887,1.405-.185,1.015-.554,1.774.582,1.639.383-.043.341-.163.383-.518C1719.221,2043.533,1719.491,2043.15,1719.583,2042.554Zm3.335,1.128.057-.39.071-.426.128-.426c.156-.426.511-.248.624-.4l.213-.575a.708.708,0,0,0-.7.355l-.036-.128c0-.007-.007-.028-.007-.043s-.014-.071-.014-.085l-.632-.085-.419,2.477.667.028.057-.3Zm5.443.284h.66c.156-.958.121-1.689.7-1.881l.291-.114.085-.5a.722.722,0,0,0-.617.312l-.092-.262c-.007-.014-.007-.036-.014-.05l-.589-.007Z" transform="translate(-1706.824 -2032.583)" fill="#fefefe" fill-rule="evenodd"/>
      <path id="Path_1110" data-name="Path 1110" d="M3386.374,2202.808c.823-.014.915-1.213.418-1.334S3385.842,2202.262,3386.374,2202.808Z" transform="translate(-3362.346 -2192)" fill="#f8b02b" fill-rule="evenodd"/>
      <path id="Path_1111" data-name="Path 1111" d="M1212.868,2307.979c-.383-.007-1.128.234-.731.6.128.114.447.021.554-.05a.6.6,0,0,0,.185-.546Zm6.947.483,1.015.007-.121-.433h-.823Z" transform="translate(-1203.664 -2297.76)" fill="#e41d2c" fill-rule="evenodd"/>
      <path id="Path_1112" data-name="Path 1112" d="M2323.8,2256.965a.529.529,0,0,0,.76-.575C2324.13,2256.312,2323.7,2256.5,2323.8,2256.965Zm-3.8-.539h.823v-.39l-.7-.035Z" transform="translate(-2303.778 -2246.15)" fill="#f8b02b" fill-rule="evenodd"/>
      <path id="Path_1113" data-name="Path 1113" d="M2001,2190.813h.844c-.021-.3-.028-.241-.177-.454C2001.248,2190.3,2001.092,2190.451,2001,2190.813Z" transform="translate(-1987.041 -2180.964)" fill="#e41d2c" fill-rule="evenodd"/>
      <path id="Path_1114" data-name="Path 1114" d="M1832,2248.177c.121.291-.064.185.17.291l.256.007.028-.383-.277-.007c-.142-.029-.064.021-.121-.085l-.05.17Z" transform="translate(-1819.241 -2238.207)" fill="#f8b02b" fill-rule="evenodd"/>
    </g>
  </g>
</svg>
