<svg id="Group_37231" data-name="Group 37231" xmlns="http://www.w3.org/2000/svg" width="27.79" height="27.79" viewBox="0 0 27.79 27.79">
  <path id="Path_355" data-name="Path 355" d="M0,0H27.79V27.79H0Z" fill="none"/>
  <path id="Path_356" data-name="Path 356" d="M20.506,18.132v-5.79c0-3.555-1.9-6.531-5.211-7.318V4.237A1.744,1.744,0,0,0,13.547,2.5a1.725,1.725,0,0,0-1.725,1.737v.787C8.5,5.812,6.611,8.776,6.611,12.342v5.79L5.106,19.626a1.158,1.158,0,0,0,.811,1.98h15.25a1.161,1.161,0,0,0,.822-1.98Zm-6.959,6.948a2.323,2.323,0,0,0,2.316-2.316H11.231A2.315,2.315,0,0,0,13.547,25.079ZM7.5,5.082a1.141,1.141,0,0,0,.035-1.656A1.157,1.157,0,0,0,5.928,3.4,12.07,12.07,0,0,0,2.142,10.42,1.17,1.17,0,0,0,3.3,11.763,1.155,1.155,0,0,0,4.434,10.8,9.773,9.773,0,0,1,7.5,5.082ZM21.2,3.4a1.171,1.171,0,0,0-1.621.023,1.137,1.137,0,0,0,.035,1.644,9.837,9.837,0,0,1,3.068,5.72,1.137,1.137,0,0,0,1.135.961,1.162,1.162,0,0,0,1.146-1.343A12.144,12.144,0,0,0,21.2,3.4Z" transform="translate(0.336 0.395)" fill="#bebcbc"/>
</svg>
