<svg xmlns="http://www.w3.org/2000/svg" width="17.25" height="23" viewBox="0 0 17.25 23">
  <path id="Path_1165" data-name="Path 1165" d="M9.575,4A.575.575,0,0,0,9,4.575v21.85A.575.575,0,0,0,9.575,27h16.1a.575.575,0,0,0,.575-.575v-16.1a.575.575,0,0,0-.168-.407l-5.75-5.75A.575.575,0,0,0,19.925,4Zm.575,21.85V5.15h9.2v5.175a.575.575,0,0,0,.575.575H25.1V25.85ZM24.287,9.75,20.5,5.963V9.75ZM13.6,20.675h1.15V16.65h.912l2.875,2.875-1.893,1.893.813.813,1.893-1.893,1.893,1.893.813-.813-1.893-1.893,1.893-1.893-.813-.813L19.35,18.712l-2.073-2.073a2.3,2.3,0,0,0-.227-4.589H14.175a.575.575,0,0,0-.575.575ZM17.05,15.5h-2.3V13.2h2.3a1.15,1.15,0,1,1,0,2.3Z" transform="translate(-9 -4)" fill="#6c6c6c" fill-rule="evenodd"/>
</svg>
