<svg xmlns="http://www.w3.org/2000/svg" width="15.11" height="15.865" viewBox="0 0 15.11 15.865">
  <g id="Group_37140"  transform="translate(-2 -1)">
    <path id="Path_1019"  d="M4.266,16.865H14.843A2.266,2.266,0,0,0,17.11,14.6V7.8a2.266,2.266,0,0,0-2.266-2.266H13.332V4.777a3.777,3.777,0,1,0-7.555,0v.755H4.266A2.266,2.266,0,0,0,2,7.8v6.8a2.266,2.266,0,0,0,2.266,2.266ZM7.288,4.777a2.266,2.266,0,0,1,4.533,0v.755H7.288ZM3.511,7.8a.755.755,0,0,1,.755-.755H14.843A.755.755,0,0,1,15.6,7.8v6.8a.756.756,0,0,1-.755.755H4.266a.755.755,0,0,1-.755-.755Z" transform="translate(0 0)" fill="#6c6c6c"/>
    <circle id="Ellipse_117"  cx="1.511" cy="1.511" r="1.511" transform="translate(8.044 9.688)" fill="#6c6c6c"/>
  </g>
</svg>
