<svg xmlns="http://www.w3.org/2000/svg" width="15.01" height="15.001" viewBox="0 0 15.01 15.001">
  <path id="Path_1021"  d="M7.407,4.776c-.2-2.247-2.54-3.35-2.639-3.395a.5.5,0,0,0-.3-.04c-2.706.449-3.114,2.024-3.13,2.09a.506.506,0,0,0,.01.276C4.579,13.723,11.288,15.579,13.493,16.19c.17.047.31.085.416.12a.506.506,0,0,0,.369-.021,4.144,4.144,0,0,0,2.051-3.23.51.51,0,0,0-.049-.313A4.852,4.852,0,0,0,13.1,10.53a.5.5,0,0,0-.452.107,6.834,6.834,0,0,1-2.172,1.355,9.644,9.644,0,0,1-4.6-4.678,5.484,5.484,0,0,1,1.4-2.148A.51.51,0,0,0,7.407,4.776Z" transform="translate(-1.326 -1.333)" fill="#6c6c6c"/>
</svg>
