<svg xmlns="http://www.w3.org/2000/svg" width="25.83" height="23.205" viewBox="0 0 25.83 23.205">
  <path id="Path_1061" data-name="Path 1061" d="M25.048,34.35,14.025,26.365a1.888,1.888,0,0,0-2.22,0L.782,34.35A1.9,1.9,0,0,0,0,35.882V47.318A1.894,1.894,0,0,0,1.892,49.21H23.938a1.894,1.894,0,0,0,1.892-1.892V35.882A1.9,1.9,0,0,0,25.048,34.35Zm-23.822.613,11.023-7.985a1.133,1.133,0,0,1,1.332,0L24.6,34.962a1.129,1.129,0,0,1,.18.163l-6.532,4.731a5.388,5.388,0,1,0-10.674,0L1.046,35.126a1.128,1.128,0,0,1,.18-.163Zm16.32,4.159a4.617,4.617,0,0,1-.218,1.406L13.581,43.24a1.133,1.133,0,0,1-1.332,0L8.5,40.527a4.631,4.631,0,1,1,9.044-1.406ZM.757,47.318V35.882c0-.01,0-.02,0-.03l7.048,5.105L.9,47.865A1.128,1.128,0,0,1,.757,47.318Zm23.181,1.135H1.892a1.129,1.129,0,0,1-.428-.084l6.963-6.963,3.379,2.447a1.888,1.888,0,0,0,2.22,0l3.465-2.51,6.978,6.978a1.128,1.128,0,0,1-.53.132Zm1.135-1.135a1.128,1.128,0,0,1-.092.447l-6.871-6.871,6.962-5.042c0,.01,0,.02,0,.03ZM14.681,36.851a.378.378,0,0,0-.378-.378H11.528a.378.378,0,0,0,0,.757h.5a1.137,1.137,0,0,1,1.07.757H11.528a.378.378,0,1,0,0,.757H13.1a1.137,1.137,0,0,1-1.07.757h-.5a.378.378,0,0,0-.274.64l2.018,2.113a.378.378,0,0,0,.547-.523l-1.438-1.505a1.9,1.9,0,0,0,1.5-1.481H14.3a.378.378,0,1,0,0-.757h-.416a1.884,1.884,0,0,0-.341-.757H14.3a.378.378,0,0,0,.378-.378Z" transform="translate(0 -26.004)" fill="#6c6c6c"/>
</svg>
