<svg xmlns="http://www.w3.org/2000/svg" width="21.216" height="18.503" viewBox="0 0 21.216 18.503">
  <g id="Group_37157" data-name="Group 37157" transform="translate(-0.5 -0.952)">
    <path id="Path_1046" data-name="Path 1046" d="M20.082,16.206a.393.393,0,0,0-.393.393v1.438a1.179,1.179,0,0,1-1.179,1.179H2.464a1.179,1.179,0,0,1-1.179-1.179V5.464A1.179,1.179,0,0,1,2.464,4.286H6.323a.393.393,0,0,0,0-.786H2.464A1.964,1.964,0,0,0,.5,5.464V18.037A1.964,1.964,0,0,0,2.464,20H18.51a1.972,1.972,0,0,0,1.964-1.964V16.6A.393.393,0,0,0,20.082,16.206Z" transform="translate(0 -0.546)" fill="#6c6c6c"/>
    <path id="Path_1047" data-name="Path 1047" d="M21.5,9.091h-.063V4.919a1.972,1.972,0,0,0-1.964-1.964.393.393,0,1,0,0,.786,1.179,1.179,0,0,1,1.179,1.179v.22h-.44L17.855,2.781,16.142,1.068a.393.393,0,0,0-.558,0L13.51,3.143,11.428,1.068a.4.4,0,0,0-.558,0L6.8,5.139H5.393a.393.393,0,1,0,0,.786h15.26V9.068H18.358a2.75,2.75,0,0,0-2.75,2.75v.3a2.75,2.75,0,0,0,2.75,2.75H21.5a1.179,1.179,0,0,0,1.179-1.179V10.27A1.179,1.179,0,0,0,21.5,9.091ZM15.867,1.9l1.139,1.139a2.043,2.043,0,0,1-2.279,0Zm-1.7,1.7a2.8,2.8,0,0,0,3.395,0L19.136,5.17H15.5L14.06,3.7ZM9.613,5.17,11.97,2.813l.55.55L10.713,5.139Zm3.5-1.281,1.32,1.249H11.821ZM11.153,1.9l.291.291L8.5,5.139H7.915ZM21.894,13.688a.393.393,0,0,1-.393.393H18.358a1.964,1.964,0,0,1-1.964-1.964v-.3a1.964,1.964,0,0,1,1.964-1.964H21.5a.393.393,0,0,1,.393.393Z" transform="translate(-0.964 0)" fill="#6c6c6c"/>
    <circle id="Ellipse_123" data-name="Ellipse 123" cx="0.786" cy="0.786" r="0.786" transform="translate(16.671 11.205)" fill="#6c6c6c"/>
  </g>
</svg>
